<svg xmlns="http://www.w3.org/2000/svg" viewBox="0 0 900 1125" role="img" aria-labelledby="title desc">
  <title id="title">Garden Vine placeholder</title>
  <desc id="desc">Linear vine botanical print placeholder.</desc>
  <rect width="900" height="1125" fill="#fbf7ee"/>
  <path d="M108 932 C252 788 188 612 352 492 C512 374 468 248 772 158" fill="none" stroke="#20231f" stroke-width="9" stroke-linecap="round"/>
  <path d="M190 804 C286 782 348 722 398 622 C292 644 226 704 190 804Z" fill="#a76042" opacity=".62"/>
  <path d="M338 512 C246 472 192 404 168 300 C284 328 350 400 338 512Z" fill="#6f8a5c" opacity=".75"/>
  <path d="M486 354 C580 306 650 236 690 126 C566 154 500 236 486 354Z" fill="#b97874" opacity=".68"/>
  <path d="M570 706 C676 650 758 640 822 686 C730 742 656 748 570 706Z" fill="#7d9b65" opacity=".74"/>
  <g fill="none" stroke="#20231f" stroke-width="3" opacity=".36">
    <path d="M205 778 C274 752 332 704 384 636"/>
    <path d="M190 324 C256 350 304 410 326 496"/>
    <path d="M514 344 C586 300 638 240 672 154"/>
  </g>
</svg>
