<svg xmlns="http://www.w3.org/2000/svg" viewBox="0 0 900 1125" role="img" aria-labelledby="title desc">
  <title id="title">Pollinator Gift Set placeholder</title>
  <desc id="desc">Small botanical and pollinator gift set placeholder.</desc>
  <rect width="900" height="1125" fill="#f7efe3"/>
  <g transform="translate(120 180)">
    <rect x="0" y="0" width="300" height="420" fill="#fffaf1" stroke="#20231f" stroke-width="4"/>
    <rect x="260" y="90" width="300" height="420" fill="#fffaf1" stroke="#20231f" stroke-width="4"/>
    <rect x="130" y="310" width="300" height="420" fill="#fffaf1" stroke="#20231f" stroke-width="4"/>
    <g fill="none" stroke="#46583f" stroke-width="6" stroke-linecap="round">
      <path d="M80 320 C130 220 194 152 248 68"/>
      <path d="M352 420 C414 306 474 250 520 168"/>
      <path d="M230 674 C282 574 340 516 398 420"/>
    </g>
    <g fill="#b97874" opacity=".72">
      <ellipse cx="150" cy="180" rx="34" ry="74" transform="rotate(36 150 180)"/>
      <ellipse cx="450" cy="266" rx="34" ry="74" transform="rotate(42 450 266)"/>
      <ellipse cx="322" cy="532" rx="34" ry="74" transform="rotate(48 322 532)"/>
    </g>
    <g fill="#20231f">
      <ellipse cx="214" cy="176" rx="28" ry="17" transform="rotate(24 214 176)"/>
      <circle cx="238" cy="170" r="10"/>
      <path d="M194 156 C174 128 154 120 130 126" stroke="#20231f" fill="none" stroke-width="3"/>
    </g>
  </g>
</svg>
