<svg xmlns="http://www.w3.org/2000/svg" viewBox="0 0 900 1125" role="img" aria-labelledby="title desc">
  <title id="title">Salt Meadow placeholder</title>
  <desc id="desc">Soft botanical meadow print placeholder.</desc>
  <rect width="900" height="1125" fill="#f8f0e2"/>
  <g opacity=".95">
    <path d="M126 734 C256 522 430 410 742 300" fill="none" stroke="#47583f" stroke-width="8" stroke-linecap="round"/>
    <path d="M172 848 C286 676 462 588 782 540" fill="none" stroke="#9a5f4d" stroke-width="6" stroke-linecap="round" opacity=".8"/>
    <path d="M228 898 C332 758 458 704 674 688" fill="none" stroke="#6f8a5c" stroke-width="11" stroke-linecap="round" opacity=".64"/>
    <g fill="#6f8a5c" opacity=".45">
      <ellipse cx="358" cy="558" rx="46" ry="126" transform="rotate(52 358 558)"/>
      <ellipse cx="522" cy="452" rx="40" ry="112" transform="rotate(61 522 452)"/>
      <ellipse cx="572" cy="708" rx="52" ry="138" transform="rotate(82 572 708)"/>
    </g>
    <g fill="#c8b989" opacity=".4">
      <circle cx="272" cy="418" r="88"/><circle cx="652" cy="376" r="118"/><circle cx="454" cy="680" r="94"/>
    </g>
    <g fill="#fffaf1" opacity=".88">
      <circle cx="260" cy="420" r="10"/><circle cx="302" cy="460" r="6"/><circle cx="628" cy="346" r="8"/><circle cx="672" cy="412" r="13"/><circle cx="462" cy="672" r="9"/>
    </g>
  </g>
</svg>
