<svg xmlns="http://www.w3.org/2000/svg" viewBox="0 0 900 1125" role="img" aria-labelledby="title desc">
  <title id="title">Wild Bloom Study placeholder</title>
  <desc id="desc">Botanical ink and watercolor style product placeholder.</desc>
  <defs>
    <filter id="paper"><feTurbulence type="fractalNoise" baseFrequency=".025" numOctaves="4"/><feColorMatrix type="saturate" values=".18"/><feBlend in="SourceGraphic" mode="multiply"/></filter>
  </defs>
  <rect width="900" height="1125" fill="#fbf6ec"/>
  <g filter="url(#paper)">
    <circle cx="318" cy="428" r="210" fill="#c66f55" opacity=".22"/>
    <circle cx="538" cy="584" r="260" fill="#7d9b65" opacity=".2"/>
    <path d="M260 864 C358 640 442 548 632 284" fill="none" stroke="#293022" stroke-width="13" stroke-linecap="round"/>
    <path d="M394 598 C294 548 238 472 224 366 C342 402 402 472 394 598Z" fill="#8ca875" opacity=".72"/>
    <path d="M468 494 C574 442 642 354 672 252 C548 282 480 356 468 494Z" fill="#b97874" opacity=".78"/>
    <path d="M382 736 C486 686 580 688 704 736 C582 790 482 796 382 736Z" fill="#6f8a5c" opacity=".7"/>
    <g fill="none" stroke="#20231f" stroke-width="4" opacity=".52">
      <path d="M240 834 C354 724 488 638 718 574"/>
      <path d="M248 720 C382 674 474 584 574 410"/>
      <path d="M406 890 C504 776 614 704 746 666"/>
    </g>
    <g fill="#ffffff" opacity=".68">
      <circle cx="292" cy="390" r="11"/><circle cx="335" cy="454" r="7"/><circle cx="544" cy="590" r="8"/><circle cx="596" cy="514" r="10"/>
    </g>
  </g>
</svg>
